<?xml version="1.0" encoding="UTF-8"?><svg id="Layer_2" xmlns="http://www.w3.org/2000/svg" viewBox="0 0 506.13 540"><defs><style>.cls-1{fill:#005945;}</style></defs><path class="cls-1" d="M159.31,251.74c-1.43,.08-2.47,.24-3.13,.48-.66,.24-1.1,.69-1.34,1.37-.24,.68-.36,1.77-.36,3.28v29.55c0,1.51,.12,2.6,.36,3.28,.24,.68,.69,1.12,1.34,1.34s1.7,.33,3.13,.33h4.35c2.46,0,4.34-.35,5.63-1.04,1.29-.69,2.23-1.82,2.83-3.37,.6-1.55,1.03-3.79,1.31-6.73h1.37c-.12,1.23-.18,2.86-.18,4.88,0,2.26,.14,4.81,.42,7.63-2.7-.12-7.25-.18-13.64-.18-7.63,0-13.39,.06-17.28,.18v-1.19c1.43-.08,2.47-.24,3.13-.48,.66-.24,1.1-.69,1.34-1.37,.24-.67,.36-1.77,.36-3.28v-29.55c0-1.51-.12-2.6-.36-3.28-.24-.68-.69-1.13-1.34-1.37-.66-.24-1.7-.4-3.13-.48v-1.19c1.67,.12,4.21,.18,7.63,.18,3.18,0,5.7-.06,7.57-.18v1.19Zm35.03,5.96c-1.43,.08-2.47,.24-3.13,.48-.66,.24-1.1,.7-1.34,1.37-.24,.68-.36,1.77-.36,3.28v23.59c0,1.51,.12,2.6,.36,3.28,.24,.68,.69,1.13,1.34,1.37,.66,.24,1.7,.4,3.13,.48v1.19c-1.83-.12-4.35-.18-7.57-.18-3.42,0-5.96,.06-7.63,.18v-1.19c1.43-.08,2.47-.24,3.13-.48,.66-.24,1.1-.69,1.34-1.37,.24-.67,.36-1.77,.36-3.28v-23.59c0-1.51-.12-2.6-.36-3.28-.24-.67-.69-1.13-1.34-1.37-.66-.24-1.7-.4-3.13-.48v-1.19c1.67,.12,4.21,.18,7.63,.18,3.18,0,5.7-.06,7.57-.18v1.19Zm28.33-1.07c1.37,.64,2.83,1.61,4.38,2.92,.52,.4,.91,.6,1.19,.6,.75,0,1.25-1.21,1.49-3.63h1.37c-.16,2.26-.24,6.24-.24,11.92h-1.37c-.32-1.51-.71-2.84-1.16-3.99-.46-1.15-1.06-2.16-1.82-3.04-1.31-1.51-2.68-2.66-4.11-3.46-1.43-.79-3.18-1.19-5.24-1.19-2.38,0-4.45,.73-6.2,2.17-1.75,1.45-3.1,3.53-4.05,6.23-.95,2.7-1.43,5.88-1.43,9.53,0,6.08,1.11,10.55,3.34,13.41,2.22,2.86,5.54,4.29,9.95,4.29,1.71,0,3.24-.16,4.59-.48,.72-.16,1.2-.42,1.46-.77,.26-.36,.39-.85,.39-1.49v-5.12c0-1.67-.16-2.88-.48-3.63-.32-.75-.87-1.27-1.67-1.55-.79-.28-2.09-.46-3.87-.54v-1.19c2.14,.12,4.94,.18,8.4,.18,2.7,0,4.77-.06,6.2-.18v1.19c-.91,.08-1.57,.24-1.97,.48-.4,.24-.68,.7-.83,1.37-.16,.68-.24,1.77-.24,3.28v8.82h-1.19c-.08-.95-.38-1.43-.89-1.43-.24,0-.68,.14-1.31,.42-.64,.28-1.07,.46-1.31,.54-2.54,.87-5.14,1.31-7.8,1.31-5.96,0-10.57-1.6-13.82-4.8-3.26-3.2-4.89-7.68-4.89-13.44,0-3.97,.75-7.44,2.26-10.4,1.51-2.96,3.6-5.24,6.29-6.85,2.68-1.61,5.75-2.41,9.21-2.41,2.22,0,4.02,.32,5.39,.95Zm54.43,1.07c-1.43,.08-2.47,.24-3.13,.48-.65,.24-1.1,.7-1.34,1.37-.24,.68-.36,1.77-.36,3.28v23.59c0,1.51,.12,2.6,.36,3.28,.24,.68,.69,1.13,1.34,1.37,.66,.24,1.7,.4,3.13,.48v1.19c-1.67-.12-4.21-.18-7.63-.18-3.18,0-5.7,.06-7.57,.18v-1.19c1.43-.08,2.47-.24,3.13-.48,.66-.24,1.1-.69,1.34-1.37,.24-.67,.36-1.77,.36-3.28v-11.86h-18.17v11.86c0,1.51,.12,2.6,.36,3.28,.24,.68,.69,1.13,1.34,1.37,.66,.24,1.7,.4,3.13,.48v1.19c-1.83-.12-4.35-.18-7.57-.18-3.42,0-5.96,.06-7.63,.18v-1.19c1.43-.08,2.47-.24,3.13-.48,.66-.24,1.1-.69,1.34-1.37,.24-.67,.36-1.77,.36-3.28v-23.59c0-1.51-.12-2.6-.36-3.28-.24-.67-.69-1.13-1.34-1.37-.66-.24-1.7-.4-3.13-.48v-1.19c1.67,.12,4.21,.18,7.63,.18,3.18,0,5.7-.06,7.57-.18v1.19c-1.43,.08-2.47,.24-3.13,.48-.66,.24-1.1,.7-1.34,1.37-.24,.68-.36,1.77-.36,3.28v10.55h18.17v-10.55c0-1.51-.12-2.6-.36-3.28-.24-.67-.69-1.13-1.34-1.37-.66-.24-1.7-.4-3.13-.48v-1.19c1.83,.12,4.35,.18,7.57,.18,3.42,0,5.96-.06,7.63-.18v1.19Zm37.65,5.84c0,2.07,.06,3.69,.18,4.88h-1.37c-.24-2.78-.62-4.9-1.13-6.37-.52-1.47-1.35-2.53-2.5-3.19-1.15-.66-2.8-.98-4.94-.98h-3.81v27.94c0,1.67,.16,2.88,.48,3.63,.32,.75,.87,1.27,1.67,1.55,.79,.28,2.09,.46,3.87,.54v1.19c-2.07-.12-4.99-.18-8.76-.18-3.97,0-6.91,.06-8.82,.18v-1.19c1.79-.08,3.08-.26,3.87-.54,.79-.28,1.35-.79,1.67-1.55,.32-.75,.48-1.97,.48-3.63v-27.94h-3.81c-2.14,0-3.79,.33-4.94,.98-1.15,.65-1.99,1.72-2.5,3.19-.52,1.47-.89,3.6-1.13,6.37h-1.37c.12-1.27,.18-2.9,.18-4.88s-.14-4.41-.42-7.03c3.3,.12,8.9,.18,16.8,.18s13.44-.06,16.74-.18c-.28,2.62-.42,4.97-.42,7.03Zm-142.06,42.62c0,1.99,.06,3.61,.18,4.88h-1.37c-.32-3.06-.72-5.33-1.19-6.82-.48-1.49-1.31-2.58-2.5-3.28-1.19-.69-3.02-1.04-5.48-1.04h-3.75c-1.43,0-2.47,.11-3.13,.33-.66,.22-1.1,.67-1.34,1.34-.24,.68-.36,1.77-.36,3.28v14.66h4.35c1.39,0,2.46-.33,3.22-.98,.75-.66,1.26-1.43,1.52-2.32,.26-.89,.47-2.02,.63-3.37l.18-1.19h1.37c-.12,1.67-.18,3.54-.18,5.6v2.86c0,2.03,.12,4.85,.36,8.46h-1.37c-.04-.28-.16-1.24-.36-2.89-.2-1.65-.74-2.89-1.64-3.72-.89-.83-2.14-1.25-3.72-1.25h-4.35v13.7c0,1.51,.16,2.6,.48,3.28,.32,.68,.87,1.13,1.67,1.37,.79,.24,2.08,.4,3.87,.48v1.19c-2.07-.12-4.98-.18-8.76-.18-3.42,0-5.96,.06-7.63,.18v-1.19c1.43-.08,2.47-.24,3.13-.48,.66-.24,1.1-.69,1.34-1.37,.24-.67,.36-1.77,.36-3.28v-29.55c0-1.51-.12-2.6-.36-3.28-.24-.68-.69-1.13-1.34-1.37-.66-.24-1.7-.4-3.13-.48v-1.19c3.89,.12,9.65,.18,17.28,.18,5.84,0,9.99-.06,12.45-.18-.28,2.82-.42,5.36-.42,7.63Zm32.74-.33c2.76,1.45,4.89,3.58,6.4,6.38,1.51,2.8,2.26,6.15,2.26,10.04s-.78,7.18-2.35,10.1c-1.57,2.92-3.74,5.18-6.52,6.79-2.78,1.61-5.94,2.41-9.47,2.41s-6.86-.72-9.62-2.17c-2.76-1.45-4.9-3.58-6.4-6.38-1.51-2.8-2.26-6.15-2.26-10.04s.78-7.18,2.35-10.1c1.57-2.92,3.74-5.18,6.52-6.79,2.78-1.61,5.94-2.41,9.47-2.41s6.86,.72,9.62,2.17Zm-16.27,1.19c-1.85,1.53-3.27,3.65-4.26,6.37-.99,2.72-1.49,5.83-1.49,9.32s.56,6.65,1.67,9.35c1.11,2.7,2.62,4.78,4.53,6.23,1.91,1.45,4.03,2.17,6.37,2.17s4.56-.77,6.4-2.29c1.85-1.53,3.27-3.65,4.26-6.37,.99-2.72,1.49-5.83,1.49-9.32s-.56-6.65-1.67-9.35c-1.11-2.7-2.62-4.78-4.53-6.23-1.91-1.45-4.03-2.17-6.37-2.17s-4.56,.77-6.4,2.29Zm65.21,31.19c-.75,1.07-1.62,1.9-2.59,2.47-.97,.58-2.14,.86-3.49,.86-3.34,0-5.38-1.51-6.14-4.53l-1.85-7.45c-.56-2.22-1.38-3.71-2.47-4.47-1.09-.75-2.71-1.13-4.86-1.13h-3.4v10.43c0,1.51,.12,2.6,.36,3.28,.24,.68,.69,1.13,1.34,1.37,.66,.24,1.7,.4,3.13,.48v1.19c-1.83-.12-4.35-.18-7.57-.18-3.42,0-5.96,.06-7.63,.18v-1.19c1.43-.08,2.47-.24,3.13-.48,.66-.24,1.1-.69,1.34-1.37,.24-.67,.36-1.77,.36-3.28v-23.59c0-1.51-.12-2.6-.36-3.28-.24-.67-.69-1.13-1.34-1.37-.66-.24-1.7-.4-3.13-.48v-1.19c1.67,.12,4.09,.18,7.27,.18l6.08-.06c.68-.04,1.45-.06,2.32-.06,4.45,0,7.85,.84,10.22,2.5,2.36,1.67,3.55,3.83,3.55,6.49,0,2.3-.92,4.41-2.77,6.32-1.85,1.91-4.88,3.12-9.09,3.63,.79,.08,1.47,.16,2.03,.24,2.1,.32,3.77,.95,5,1.91,1.23,.95,2.1,2.48,2.62,4.59l1.31,5.42c.32,1.39,.66,2.37,1.04,2.95,.38,.58,.86,.86,1.46,.86,.99,0,2.09-.67,3.28-2.02l.83,.77Zm-23.39-32.11c-.54,.28-.9,.77-1.1,1.49s-.3,1.79-.3,3.22v11.97h3.99c3.49,0,5.89-.74,7.18-2.23,1.29-1.49,1.94-3.6,1.94-6.34s-.73-5-2.17-6.4c-1.45-1.41-3.82-2.12-7.12-2.12-1.07,0-1.88,.14-2.41,.42Zm55.14,34.62c-2.58-.12-6.93-.18-13.05-.18-7.35,0-12.91,.06-16.68,.18v-1.19c1.43-.08,2.47-.24,3.13-.48,.65-.24,1.1-.69,1.34-1.37,.24-.67,.36-1.77,.36-3.28v-23.59c0-1.51-.12-2.6-.36-3.28-.24-.67-.69-1.13-1.34-1.37-.66-.24-1.7-.4-3.13-.48v-1.19c3.77,.12,9.33,.18,16.68,.18,5.56,0,9.51-.06,11.86-.18-.28,2.38-.42,4.53-.42,6.44,0,1.55,.06,2.78,.18,3.69h-1.37c-.28-3.26-.96-5.53-2.06-6.82s-2.87-1.94-5.33-1.94h-4.35c-1.43,0-2.47,.11-3.13,.33-.65,.22-1.1,.67-1.34,1.34-.24,.68-.36,1.77-.36,3.28v11.08h4.95c1.27,0,2.24-.33,2.92-.98,.67-.65,1.13-1.37,1.37-2.14s.46-1.76,.66-2.95h1.37c-.12,1.35-.18,2.82-.18,4.41v2.26c0,1.55,.12,3.77,.36,6.67h-1.37c-.24-1.91-.69-3.4-1.37-4.47-.68-1.07-1.93-1.61-3.75-1.61h-4.95v11.32c0,1.51,.12,2.6,.36,3.28,.24,.68,.69,1.12,1.34,1.34,.66,.22,1.7,.33,3.13,.33h4.35c1.99,0,3.55-.32,4.71-.95s2.03-1.66,2.62-3.07c.6-1.41,1.01-3.39,1.25-5.93h1.37c-.12,1.07-.18,2.5-.18,4.29,0,2.07,.14,4.41,.42,7.03Zm22.61-36.49c1.01,.38,2.06,.92,3.13,1.64,.87,.56,1.55,.83,2.02,.83,.36,0,.64-.21,.83-.62s.36-1.08,.48-2h1.37c-.2,2.07-.3,5.72-.3,10.96h-1.37c-.24-2.86-1.16-5.28-2.77-7.27-1.61-1.99-3.94-2.98-7-2.98-2.11,0-3.84,.56-5.21,1.67-1.37,1.11-2.06,2.52-2.06,4.23,0,1.23,.31,2.31,.92,3.22,.62,.91,1.41,1.7,2.38,2.35,.97,.65,2.35,1.46,4.14,2.41l1.97,1.07c2.46,1.31,4.44,2.48,5.93,3.51,1.49,1.03,2.69,2.21,3.6,3.55,.91,1.33,1.37,2.87,1.37,4.62,0,3.22-1.16,5.71-3.48,7.48s-5.23,2.65-8.73,2.65c-1.91,0-3.46-.2-4.68-.6-1.21-.4-2.37-.93-3.49-1.61-.87-.56-1.55-.84-2.03-.84-.36,0-.64,.21-.83,.63s-.36,1.08-.48,2h-1.37c.16-1.95,.24-6.32,.24-13.11h1.37c.28,3.69,1.27,6.67,2.98,8.94,1.71,2.26,4.33,3.4,7.86,3.4,1.99,0,3.7-.57,5.15-1.7,1.45-1.13,2.17-2.81,2.17-5.03,0-1.31-.38-2.47-1.13-3.49-.75-1.01-1.77-1.92-3.04-2.71-1.27-.79-3.04-1.79-5.3-2.98-3.26-1.67-5.74-3.34-7.45-5-1.71-1.67-2.56-3.83-2.56-6.49,0-2.94,1.08-5.22,3.25-6.85,2.16-1.63,4.82-2.44,7.95-2.44,1.75,0,3.13,.19,4.14,.57Zm47.63,7.3c0,2.07,.06,3.69,.18,4.88h-1.37c-.24-2.78-.62-4.9-1.13-6.37-.52-1.47-1.35-2.53-2.5-3.19-1.15-.66-2.8-.98-4.95-.98h-3.81v27.94c0,1.67,.16,2.88,.48,3.63,.32,.75,.87,1.27,1.67,1.55,.79,.28,2.09,.46,3.87,.54v1.19c-2.07-.12-4.98-.18-8.76-.18-3.97,0-6.91,.06-8.82,.18v-1.19c1.79-.08,3.08-.26,3.87-.54,.79-.28,1.35-.79,1.67-1.55s.48-1.97,.48-3.63v-27.94h-3.81c-2.14,0-3.79,.33-4.95,.98-1.15,.65-1.99,1.72-2.5,3.19-.52,1.47-.89,3.6-1.13,6.37h-1.37c.12-1.27,.18-2.9,.18-4.88s-.14-4.41-.42-7.03c3.3,.12,8.9,.18,16.8,.18s13.44-.06,16.74-.18c-.28,2.62-.42,4.97-.42,7.03Zm34.08,26.63c1.6-.22,3.2-.61,4.7-1.2-3.52-1.4-6.81-3.09-9.81-5.09,1.26-.26,2.51-.56,3.77-.87,1.6-.12,3.21-.37,4.84-.78,.14-.06,.53-.12,.42-.19-2.79-1.52-5.39-3.15-7.76-4.86,.67-.17,1.33-.39,1.97-.64-2.61-1.02-5.03-2.27-7.26-3.69-1.07-.99-2.08-2-3.01-3.03,.28-.05,.54-.09,.81-.14,2.39,.19,4.87,.02,7.4-.64,.09-.06,.4-.09,.31-.16-.85-.48-1.68-.98-2.48-1.49,1.44-.19,2.86-.51,4.24-1.04-6.05-2.39-11.11-5.85-15.15-10.4,2.98,.64,6.91,0,8.95-.9-2.25-1.04-4.33-2.31-6.22-3.8,.71-.12,1.43-.34,2.13-.62,.96-.14,1.92-.33,2.9-.57,.14-.05,.54-.11,.42-.19-2.81-1.54-5.43-3.17-7.84-4.9,.68-.17,1.33-.39,1.99-.64-.73-.29-1.46-.59-2.16-.93,1.06-.03,2.16-.25,3.24-.68,.19-.06,.36-.14,.51-.2-2.68-1.3-5.04-3.01-7.05-5.17,1.1-.09,2.23-.29,3.37-.59,.09-.06,.4-.09,.31-.16-.85-.5-1.71-.99-2.51-1.52,1.46-.17,2.9-.51,4.28-1.04-1.92-.76-3.76-1.65-5.49-2.64,.93,0,2.3-.12,3.04-.7-.65-.53-1.55-.87-2.27-1.37-.74-.5-1.44-1.07-2.1-1.68-1.24-1.2-2.33-2.56-3.18-4.05,1.46-.22,2.79-.57,3.74-.99-.36,.16-2.06-1.06-2.37-1.24,.54-.12,1.09-.31,1.6-.57-3.96-1.99-5.84-5.98-6.5-10.17,.56-.11,1.12-.26,1.69-.5,.17-.06,.34-.12,.5-.2-4.1-1.97-7.43-4.92-9.98-8.92,1.49,.39,3.1,.37,4.76-.39-1.18-.56-2.2-1.21-3.2-2.02,.02,0,.03,0,.05,.02,1.26,.19,3.23,.2,4.28-.62-.71-.57-1.66-.93-2.44-1.47-.78-.54-1.52-1.16-2.2-1.83-1.32-1.29-2.44-2.79-3.32-4.41,.17,.06,.36,.09,.53,.12-.03-.05-.03-.06-.05-.08-.36-.7-.68-1.43-.99-2.19,1.15,.59,2.72,.68,3.79-.16-.96-.76-2.03-1.26-2.9-2.17-.79-.85-1.46-1.82-1.97-2.86-1.07-2.11-1.6-4.47-1.83-6.81-.16,2.28-.71,4.52-1.88,6.58-1.19,1.96-3.52,3.99-5.77,5.59,1.09,.33,2.14,.29,3.12,.08,.03-.02,.05-.06,.08-.09,.02,.02,.02,.05,.05,.08,.36-.11,.71-.22,1.07-.34-.26,.53-.54,1.06-.84,1.57,.23-.05,.54-.14,.85-.25-1.71,2.98-4.19,5.79-7.65,8.32-2.59-1.82-4.92-3.97-6.88-6.58,1.15,.57,2.67,.79,4.21,.76,1.58,.05,3.23-.19,4.89-.85,.22-.08,.42-.16,.61-.25-4.87-2.34-8.83-5.84-11.84-10.58,1.75,.47,3.68,.45,5.65-.45-1.4-.67-2.62-1.44-3.79-2.41,.02,0,.03,.02,.06,.02,1.49,.23,3.83,.23,5.09-.73-.85-.68-2-1.1-2.92-1.74-.9-.64-1.75-1.35-2.55-2.11-1.58-1.55-2.93-3.35-3.99-5.29,.2,.06,.4,.11,.61,.14-.03-.05-.03-.08-.05-.09-.43-.82-.81-1.69-1.18-2.59,1.35,.7,3.24,.82,4.52-.17-1.12-.88-2.39-1.47-3.41-2.53-.96-1.01-1.75-2.17-2.37-3.41-1.29-2.51-1.92-5.31-2.19-8.1-.17,2.7-.85,5.34-2.23,7.81-1.4,2.3-4.17,4.72-6.83,6.61,1.27,.39,2.53,.36,3.69,.09,.03-.03,.06-.06,.08-.11,.03,.02,.03,.06,.06,.08,.42-.11,.85-.23,1.27-.39-.31,.62-.64,1.24-.98,1.86,.26-.06,.62-.17,.99-.31-2.06,3.62-5.08,7.01-9.3,10.06-.11,.08-.2,.16-.29,.22,.11,.03,.2,.06,.31,.09,.05,.02,.09,.02,.12,.03,.09,.03,.2,.05,.29,.08,.12,.03,.25,.05,.37,.08,.05,0,.11,.02,.16,.03,1.07,.19,2.13,.23,3.15,.14,.03,0,.05-.02,.06-.02,.12-.02,.23-.02,.34-.03-1.04,.93-2.16,1.85-3.37,2.72,1.63,.5,3.23,.54,4.76,.29-.25,.05-.9,1.23-1.09,1.44-.37,.5-.76,.96-1.16,1.43-.82,.98-1.71,1.89-2.61,2.79-.96,.93-1.96,1.82-2.98,2.67-.95,.78-2.22,1.46-3.01,2.37,.09,.08,.2,.11,.31,.17,.95,.57,2.79,.51,3.86,.53,1.46,0,2.9-.16,4.33-.47-2.95,3.54-6.35,6.69-10.12,9.33,1.06,.34,2.16,.54,3.27,.59-1.47,1.18-3.01,2.3-4.61,3.31h8.77c.23,0,.47,0,.68-.09,.16-.08,.29-.2,.42-.33,4.28-4.25,6.36-9.96,6.75-15.89,.59,5.99,2.2,12.29,6.43,16.79,.79,.85,1.68,1.63,2.62,2.33,.88,.67,1.97,1.1,2.84,1.77-.88,.68-2.51,1.07-3.63,1.1-.53,.02-1.04-.06-1.54-.2-.29-.08-1.46-.36-1.57-.64,.54,1.32,1.1,2.61,1.74,3.83,.03,.03,.03,.08,.08,.14-.29-.03-.61-.11-.92-.2,1.61,2.93,3.6,5.66,6.02,7.98,1.23,1.15,2.53,2.2,3.91,3.17,.7,.48,1.43,.93,2.17,1.37,.28,.16,1.8,1.21,2.06,1.09-2.39,1.13-5.14,1.51-7.74,1.07,1.71,1.41,3.59,2.61,5.57,3.57-2.58,1.18-5.59,1.43-8.33,.67,2.73,4.42,6.32,8.32,10.48,11.42,.9-.96,1.74-2,2.48-3.09-1.37,.22-2.76,.11-4.08-.28,.99-.73,1.96-1.52,2.87-2.34-1.38,.16-2.81,.03-4.14-.39,3.37-2.31,6.24-5.37,8.33-8.89l-.84,.23c.26-.53,.53-1.07,.79-1.6-1.37,.54-2.98,.7-4.41,.26,2.31-1.65,4.72-3.74,5.94-5.76,1.19-2.14,1.78-4.42,1.94-6.78,.36,3.52,1.3,7.25,3.82,9.89,.93,.98,2.06,1.52,3.1,2.33-.53,.42-1.46,.65-2.13,.65-.34,.02-1.63-.12-1.78-.5,.33,.78,1.63,2.13,2.37,2.98-.33-.36-1.4-.56-1.86-.73,1.01,1.52,1.86,3.23,3.21,4.47,1.18,1.09,2.62,1.82,3.96,2.68,.61,.4,1.38,.74,.4,1.16-.5,.2-1.09,.22-1.61,.28-.39,.05-1.85,.26-2.14-.03-.02-.02-.05-.02-.06-.03,1.02,.84,2.1,1.52,3.31,2.1-1.72,.78-3.38,.81-4.92,.39,.06,.1,10.97,9.51,10.32,9.2-.17,.09-.36,.16-.54,.23-1.44,.57-6.03-.07-7.04-.57,.85,1.13,6.32,7.4,8.95,8.64-.87,.4-1.74,.67-2.61,.82,1.97,1.57,4.13,2.89,6.47,3.97-2.14,.95-5.34,.95-8.46,.3,4.22,4.73,8.62,8.98,14.92,11.49-1.43,.54-2.92,.88-4.42,1.07,.84,.53,1.71,1.06,2.61,1.57,.09,.05-.23,.09-.33,.16-2.64,.67-5.23,.85-7.73,.65-.28,.06-.56,.11-.84,.14,.98,1.09,2.02,2.14,3.14,3.17,2.34,1.49,4.87,2.78,7.57,3.85-.67,.28-1.35,.5-2.05,.67,2.48,1.78,5.18,3.48,8.09,5.06,.12,.08-.29,.14-.43,.2-1.69,.42-3.38,.68-5.04,.81-1.32,.33-2.62,.64-3.93,.92,.14,.09,.29,.2,.45,.28h23.54c-1.63-.67-2.61-1.16-4.87-2.62Zm-29.83-75.4c-1.63-1.3-3.09-2.81-4.38-4.52,.98,.48,2.27,.65,3.55,.64,.67,.03,1.35-.02,2.05-.16-.22,1.38-.61,2.73-1.23,4.04Z"/></svg>