<?xml version="1.0" encoding="UTF-8"?><svg id="Layer_2" xmlns="http://www.w3.org/2000/svg" viewBox="0 0 256 256"><defs><style>.cls-1{fill:#005945;}</style></defs><path class="cls-1" d="M43.98,113.96c-1.09,.06-1.89,.18-2.39,.36-.5,.18-.84,.53-1.02,1.05-.18,.52-.27,1.35-.27,2.5v22.56c0,1.15,.09,1.99,.27,2.5,.18,.52,.52,.86,1.02,1.02s1.3,.25,2.39,.25h3.32c1.88,0,3.31-.26,4.3-.8,.98-.53,1.71-1.39,2.16-2.57,.46-1.18,.79-2.9,1-5.14h1.05c-.09,.94-.14,2.18-.14,3.73,0,1.73,.11,3.67,.32,5.82-2.06-.09-5.53-.14-10.42-.14-5.82,0-10.22,.05-13.19,.14v-.91c1.09-.06,1.89-.18,2.39-.36,.5-.18,.84-.53,1.02-1.05,.18-.51,.27-1.35,.27-2.5v-22.56c0-1.15-.09-1.99-.27-2.5-.18-.52-.52-.86-1.02-1.05-.5-.18-1.3-.3-2.39-.36v-.91c1.27,.09,3.21,.14,5.82,.14,2.43,0,4.35-.05,5.78-.14v.91Zm26.75,4.55c-1.09,.06-1.89,.18-2.39,.36-.5,.18-.84,.53-1.02,1.05-.18,.52-.27,1.35-.27,2.5v18.01c0,1.15,.09,1.99,.27,2.5,.18,.52,.52,.86,1.02,1.05,.5,.18,1.3,.3,2.39,.36v.91c-1.4-.09-3.32-.14-5.78-.14-2.61,0-4.55,.05-5.82,.14v-.91c1.09-.06,1.89-.18,2.39-.36,.5-.18,.84-.53,1.02-1.05,.18-.51,.27-1.35,.27-2.5v-18.01c0-1.15-.09-1.99-.27-2.5-.18-.51-.52-.86-1.02-1.05-.5-.18-1.3-.3-2.39-.36v-.91c1.27,.09,3.21,.14,5.82,.14,2.43,0,4.35-.05,5.78-.14v.91Zm21.63-.82c1.05,.48,2.16,1.23,3.34,2.23,.39,.3,.7,.45,.91,.45,.58,0,.96-.92,1.14-2.77h1.05c-.12,1.73-.18,4.76-.18,9.1h-1.05c-.24-1.15-.54-2.17-.89-3.05-.35-.88-.81-1.65-1.39-2.32-1-1.15-2.05-2.03-3.14-2.64-1.09-.61-2.43-.91-4-.91-1.82,0-3.4,.55-4.73,1.66-1.33,1.11-2.37,2.69-3.09,4.75-.73,2.06-1.09,4.49-1.09,7.28,0,4.64,.85,8.05,2.55,10.24,1.7,2.18,4.23,3.27,7.6,3.27,1.3,0,2.47-.12,3.5-.36,.55-.12,.92-.32,1.11-.59,.2-.27,.3-.65,.3-1.14v-3.91c0-1.27-.12-2.2-.36-2.77-.24-.58-.67-.97-1.27-1.18-.61-.21-1.59-.35-2.96-.41v-.91c1.64,.09,3.78,.14,6.41,.14,2.06,0,3.64-.05,4.73-.14v.91c-.7,.06-1.2,.18-1.5,.36-.3,.18-.52,.53-.64,1.05-.12,.52-.18,1.35-.18,2.5v6.73h-.91c-.06-.73-.29-1.09-.68-1.09-.18,0-.52,.11-1,.32-.49,.21-.82,.35-1,.41-1.94,.67-3.93,1-5.96,1-4.55,0-8.07-1.22-10.55-3.66-2.49-2.44-3.73-5.86-3.73-10.26,0-3.03,.58-5.68,1.73-7.94,1.15-2.26,2.75-4,4.8-5.23,2.05-1.23,4.39-1.84,7.03-1.84,1.7,0,3.07,.24,4.12,.73Zm41.56,.82c-1.09,.06-1.89,.18-2.39,.36-.5,.18-.84,.53-1.02,1.05-.18,.52-.27,1.35-.27,2.5v18.01c0,1.15,.09,1.99,.27,2.5,.18,.52,.52,.86,1.02,1.05,.5,.18,1.3,.3,2.39,.36v.91c-1.27-.09-3.21-.14-5.82-.14-2.43,0-4.35,.05-5.78,.14v-.91c1.09-.06,1.89-.18,2.39-.36,.5-.18,.84-.53,1.02-1.05,.18-.51,.27-1.35,.27-2.5v-9.05h-13.87v9.05c0,1.15,.09,1.99,.27,2.5,.18,.52,.52,.86,1.02,1.05,.5,.18,1.3,.3,2.39,.36v.91c-1.4-.09-3.32-.14-5.78-.14-2.61,0-4.55,.05-5.82,.14v-.91c1.09-.06,1.89-.18,2.39-.36,.5-.18,.84-.53,1.02-1.05,.18-.51,.27-1.35,.27-2.5v-18.01c0-1.15-.09-1.99-.27-2.5-.18-.51-.52-.86-1.02-1.05-.5-.18-1.3-.3-2.39-.36v-.91c1.27,.09,3.21,.14,5.82,.14,2.43,0,4.35-.05,5.78-.14v.91c-1.09,.06-1.89,.18-2.39,.36-.5,.18-.84,.53-1.02,1.05-.18,.52-.27,1.35-.27,2.5v8.05h13.87v-8.05c0-1.15-.09-1.99-.27-2.5-.18-.51-.52-.86-1.02-1.05-.5-.18-1.3-.3-2.39-.36v-.91c1.39,.09,3.32,.14,5.78,.14,2.61,0,4.55-.05,5.82-.14v.91Zm28.75,4.46c0,1.58,.05,2.82,.14,3.73h-1.05c-.18-2.12-.47-3.74-.86-4.87-.39-1.12-1.03-1.93-1.91-2.43-.88-.5-2.14-.75-3.78-.75h-2.91v21.34c0,1.27,.12,2.2,.36,2.77,.24,.58,.67,.97,1.27,1.18,.61,.21,1.59,.35,2.96,.41v.91c-1.58-.09-3.81-.14-6.69-.14-3.03,0-5.28,.05-6.73,.14v-.91c1.36-.06,2.35-.2,2.96-.41,.61-.21,1.03-.61,1.27-1.18,.24-.58,.36-1.5,.36-2.77v-21.34h-2.91c-1.64,0-2.9,.25-3.78,.75-.88,.5-1.52,1.31-1.91,2.43-.39,1.12-.68,2.74-.86,4.87h-1.05c.09-.97,.14-2.21,.14-3.73s-.11-3.37-.32-5.37c2.52,.09,6.79,.14,12.83,.14s10.27-.05,12.78-.14c-.21,2-.32,3.79-.32,5.37Zm-108.46,32.54c0,1.52,.05,2.76,.14,3.73h-1.05c-.24-2.34-.55-4.07-.91-5.21s-1-1.97-1.91-2.5c-.91-.53-2.31-.8-4.19-.8h-2.87c-1.09,0-1.89,.08-2.39,.25-.5,.17-.84,.51-1.02,1.02-.18,.52-.27,1.35-.27,2.5v11.19h3.32c1.06,0,1.88-.25,2.46-.75,.58-.5,.96-1.09,1.16-1.77,.2-.68,.36-1.54,.48-2.57l.14-.91h1.05c-.09,1.27-.14,2.7-.14,4.28v2.18c0,1.55,.09,3.7,.27,6.46h-1.05c-.03-.21-.12-.95-.27-2.21-.15-1.26-.57-2.21-1.25-2.84-.68-.64-1.63-.95-2.84-.95h-3.32v10.46c0,1.15,.12,1.99,.36,2.5,.24,.52,.67,.86,1.27,1.05,.61,.18,1.59,.3,2.96,.36v.91c-1.58-.09-3.81-.14-6.69-.14-2.61,0-4.55,.05-5.82,.14v-.91c1.09-.06,1.89-.18,2.39-.36,.5-.18,.84-.53,1.02-1.05,.18-.51,.27-1.35,.27-2.5v-22.56c0-1.15-.09-1.99-.27-2.5-.18-.52-.52-.86-1.02-1.05-.5-.18-1.3-.3-2.39-.36v-.91c2.97,.09,7.37,.14,13.19,.14,4.46,0,7.63-.05,9.51-.14-.21,2.15-.32,4.09-.32,5.82Zm25-.25c2.11,1.11,3.74,2.73,4.89,4.87,1.15,2.14,1.73,4.69,1.73,7.67s-.6,5.48-1.8,7.71c-1.2,2.23-2.86,3.96-4.98,5.19-2.12,1.23-4.53,1.84-7.23,1.84s-5.24-.55-7.35-1.66c-2.11-1.11-3.74-2.73-4.89-4.87-1.15-2.14-1.73-4.69-1.73-7.67s.6-5.48,1.8-7.71c1.2-2.23,2.86-3.96,4.98-5.19,2.12-1.23,4.53-1.84,7.23-1.84s5.24,.55,7.35,1.66Zm-12.42,.91c-1.41,1.17-2.49,2.79-3.25,4.87-.76,2.08-1.14,4.45-1.14,7.12s.42,5.08,1.27,7.14c.85,2.06,2,3.65,3.46,4.75,1.46,1.11,3.08,1.66,4.87,1.66s3.48-.58,4.89-1.75c1.41-1.17,2.49-2.79,3.25-4.87,.76-2.08,1.14-4.45,1.14-7.12s-.42-5.08-1.27-7.14c-.85-2.06-2-3.65-3.46-4.75-1.46-1.11-3.08-1.66-4.87-1.66s-3.48,.58-4.89,1.75Zm49.79,23.81c-.58,.82-1.24,1.45-1.98,1.89-.74,.44-1.63,.66-2.66,.66-2.55,0-4.11-1.15-4.69-3.46l-1.41-5.69c-.42-1.7-1.05-2.84-1.89-3.41-.83-.58-2.07-.86-3.71-.86h-2.59v7.96c0,1.15,.09,1.99,.27,2.5,.18,.52,.52,.86,1.02,1.05,.5,.18,1.3,.3,2.39,.36v.91c-1.4-.09-3.32-.14-5.78-.14-2.61,0-4.55,.05-5.82,.14v-.91c1.09-.06,1.89-.18,2.39-.36,.5-.18,.84-.53,1.02-1.05,.18-.51,.27-1.35,.27-2.5v-18.01c0-1.15-.09-1.99-.27-2.5-.18-.51-.52-.86-1.02-1.05-.5-.18-1.3-.3-2.39-.36v-.91c1.27,.09,3.12,.14,5.55,.14l4.64-.05c.52-.03,1.11-.05,1.77-.05,3.4,0,6,.64,7.8,1.91,1.8,1.27,2.71,2.93,2.71,4.96,0,1.76-.7,3.37-2.12,4.82-1.41,1.46-3.72,2.38-6.94,2.77,.61,.06,1.12,.12,1.55,.18,1.61,.24,2.88,.73,3.82,1.46,.94,.73,1.61,1.9,2,3.5l1,4.14c.24,1.06,.51,1.81,.8,2.25,.29,.44,.66,.66,1.11,.66,.76,0,1.59-.51,2.5-1.55l.64,.59Zm-17.86-24.52c-.41,.21-.69,.59-.84,1.14s-.23,1.36-.23,2.46v9.14h3.05c2.67,0,4.5-.57,5.48-1.71,.99-1.14,1.48-2.75,1.48-4.84s-.55-3.81-1.66-4.89c-1.11-1.08-2.92-1.62-5.44-1.62-.82,0-1.43,.11-1.84,.32Zm42.1,26.43c-1.97-.09-5.29-.14-9.96-.14-5.61,0-9.86,.05-12.74,.14v-.91c1.09-.06,1.89-.18,2.39-.36,.5-.18,.84-.53,1.02-1.05,.18-.51,.27-1.35,.27-2.5v-18.01c0-1.15-.09-1.99-.27-2.5-.18-.51-.52-.86-1.02-1.05-.5-.18-1.3-.3-2.39-.36v-.91c2.88,.09,7.13,.14,12.74,.14,4.25,0,7.26-.05,9.05-.14-.21,1.82-.32,3.46-.32,4.91,0,1.18,.05,2.12,.14,2.82h-1.05c-.21-2.49-.73-4.22-1.57-5.21s-2.19-1.48-4.07-1.48h-3.32c-1.09,0-1.89,.08-2.39,.25-.5,.17-.84,.51-1.02,1.02-.18,.52-.27,1.35-.27,2.5v8.46h3.78c.97,0,1.71-.25,2.23-.75,.51-.5,.86-1.05,1.05-1.64s.35-1.34,.5-2.25h1.05c-.09,1.03-.14,2.15-.14,3.37v1.73c0,1.18,.09,2.88,.27,5.1h-1.05c-.18-1.46-.53-2.59-1.05-3.41-.52-.82-1.47-1.23-2.87-1.23h-3.78v8.64c0,1.15,.09,1.99,.27,2.5,.18,.52,.52,.86,1.02,1.02,.5,.17,1.3,.25,2.39,.25h3.32c1.52,0,2.71-.24,3.59-.73s1.55-1.27,2-2.34c.45-1.08,.77-2.59,.96-4.53h1.05c-.09,.82-.14,1.91-.14,3.27,0,1.58,.11,3.37,.32,5.37Zm17.26-27.86c.77,.29,1.57,.7,2.39,1.25,.67,.42,1.18,.64,1.55,.64,.27,0,.48-.16,.64-.48s.27-.83,.36-1.52h1.05c-.15,1.58-.23,4.37-.23,8.37h-1.05c-.18-2.18-.89-4.03-2.12-5.55-1.23-1.52-3.01-2.27-5.35-2.27-1.61,0-2.93,.42-3.98,1.27-1.05,.85-1.57,1.93-1.57,3.23,0,.94,.23,1.76,.71,2.46,.47,.7,1.08,1.3,1.82,1.8,.74,.5,1.8,1.11,3.16,1.84l1.5,.82c1.88,1,3.39,1.9,4.53,2.68,1.14,.79,2.05,1.69,2.75,2.71s1.05,2.19,1.05,3.53c0,2.46-.89,4.36-2.66,5.71s-4,2.02-6.67,2.02c-1.45,0-2.65-.15-3.57-.45-.93-.3-1.81-.71-2.66-1.23-.67-.42-1.18-.64-1.55-.64-.27,0-.48,.16-.64,.48s-.27,.83-.36,1.52h-1.05c.12-1.49,.18-4.82,.18-10.01h1.05c.21,2.82,.97,5.1,2.27,6.82,1.3,1.73,3.3,2.59,6,2.59,1.52,0,2.83-.43,3.94-1.3,1.11-.86,1.66-2.15,1.66-3.84,0-1-.29-1.89-.86-2.66-.58-.77-1.35-1.46-2.32-2.07-.97-.61-2.32-1.37-4.05-2.28-2.49-1.27-4.38-2.55-5.69-3.82s-1.96-2.93-1.96-4.96c0-2.24,.83-3.99,2.48-5.23,1.65-1.24,3.68-1.86,6.07-1.86,1.33,0,2.39,.14,3.16,.43Zm36.37,5.57c0,1.58,.05,2.82,.14,3.73h-1.05c-.18-2.12-.47-3.74-.86-4.87-.39-1.12-1.03-1.93-1.91-2.43-.88-.5-2.14-.75-3.78-.75h-2.91v21.34c0,1.27,.12,2.2,.36,2.77,.24,.58,.67,.97,1.27,1.18,.61,.21,1.59,.35,2.96,.41v.91c-1.58-.09-3.81-.14-6.69-.14-3.03,0-5.28,.05-6.73,.14v-.91c1.37-.06,2.35-.2,2.96-.41,.61-.21,1.03-.61,1.27-1.18s.36-1.5,.36-2.77v-21.34h-2.91c-1.64,0-2.9,.25-3.78,.75-.88,.5-1.52,1.31-1.91,2.43-.39,1.12-.68,2.74-.86,4.87h-1.05c.09-.97,.14-2.21,.14-3.73s-.11-3.37-.32-5.37c2.52,.09,6.79,.14,12.83,.14s10.27-.05,12.78-.14c-.21,2-.32,3.79-.32,5.37Zm26.02,20.34c1.22-.17,2.44-.46,3.59-.91-2.69-1.07-5.2-2.36-7.49-3.89,.96-.2,1.92-.43,2.88-.66,1.22-.09,2.45-.28,3.7-.59,.11-.05,.4-.09,.32-.14-2.13-1.16-4.11-2.41-5.92-3.71,.51-.13,1.02-.3,1.5-.49-1.99-.78-3.84-1.73-5.55-2.82-.82-.76-1.59-1.53-2.3-2.31,.21-.04,.41-.07,.62-.11,1.82,.14,3.72,.01,5.65-.49,.07-.05,.31-.07,.24-.12-.65-.37-1.28-.75-1.9-1.14,1.1-.14,2.18-.39,3.23-.79-4.62-1.82-8.48-4.47-11.57-7.94,2.28,.49,5.27,0,6.84-.69-1.72-.79-3.31-1.77-4.75-2.9,.55-.09,1.09-.26,1.62-.47,.73-.11,1.47-.25,2.22-.44,.11-.04,.41-.08,.32-.14-2.14-1.17-4.15-2.42-5.98-3.74,.52-.13,1.02-.3,1.52-.49-.56-.23-1.11-.45-1.65-.71,.81-.02,1.65-.19,2.48-.52,.14-.05,.27-.11,.39-.15-2.05-1-3.85-2.3-5.38-3.95,.84-.07,1.71-.23,2.57-.45,.07-.05,.31-.07,.24-.12-.65-.38-1.3-.76-1.92-1.16,1.11-.13,2.22-.39,3.27-.79-1.47-.58-2.87-1.26-4.19-2.01,.71,0,1.75-.09,2.32-.53-.5-.4-1.18-.66-1.73-1.04-.57-.38-1.1-.82-1.6-1.28-.95-.91-1.78-1.96-2.43-3.09,1.11-.17,2.13-.44,2.86-.76-.27,.12-1.58-.81-1.81-.95,.41-.09,.83-.24,1.22-.44-3.02-1.52-4.46-4.56-4.97-7.76,.43-.08,.85-.2,1.29-.38,.13-.05,.26-.09,.38-.15-3.13-1.5-5.68-3.76-7.62-6.81,1.14,.3,2.37,.28,3.64-.3-.9-.43-1.68-.92-2.44-1.54,.01,0,.02,0,.04,.01,.96,.14,2.46,.15,3.27-.47-.55-.44-1.27-.71-1.86-1.13-.59-.41-1.16-.89-1.68-1.4-1.01-.98-1.86-2.13-2.54-3.37,.13,.05,.27,.07,.4,.09-.02-.04-.02-.05-.04-.06-.27-.53-.52-1.09-.76-1.67,.88,.45,2.07,.52,2.89-.12-.73-.58-1.55-.96-2.22-1.66-.6-.65-1.11-1.39-1.5-2.18-.82-1.61-1.22-3.41-1.4-5.2-.12,1.74-.55,3.45-1.43,5.02-.91,1.49-2.69,3.05-4.41,4.27,.83,.25,1.64,.23,2.38,.06,.02-.01,.04-.05,.06-.07,.01,.01,.01,.04,.04,.06,.27-.08,.55-.17,.82-.26-.2,.4-.41,.81-.64,1.2,.18-.04,.41-.11,.65-.19-1.3,2.28-3.2,4.42-5.84,6.35-1.98-1.39-3.76-3.03-5.25-5.02,.88,.44,2.04,.6,3.21,.58,1.21,.04,2.46-.14,3.73-.65,.17-.06,.32-.12,.46-.19-3.72-1.79-6.74-4.46-9.04-8.08,1.34,.36,2.81,.34,4.31-.34-1.07-.51-2-1.1-2.89-1.84,.01,0,.02,.01,.05,.01,1.14,.18,2.93,.18,3.89-.56-.65-.52-1.53-.84-2.23-1.33-.69-.49-1.34-1.03-1.94-1.61-1.21-1.18-2.24-2.56-3.05-4.04,.15,.05,.31,.08,.46,.11-.02-.04-.02-.06-.04-.07-.33-.63-.62-1.29-.9-1.98,1.03,.53,2.48,.63,3.45-.13-.85-.68-1.82-1.13-2.61-1.93-.73-.77-1.34-1.66-1.81-2.61-.98-1.92-1.47-4.05-1.67-6.19-.13,2.06-.65,4.08-1.71,5.96-1.07,1.75-3.19,3.6-5.21,5.05,.97,.3,1.93,.27,2.82,.07,.02-.02,.05-.05,.06-.08,.02,.01,.02,.05,.05,.06,.32-.08,.65-.18,.97-.3-.24,.47-.49,.95-.75,1.42,.2-.05,.47-.13,.76-.24-1.58,2.76-3.87,5.36-7.1,7.68-.08,.06-.15,.12-.23,.17,.08,.02,.15,.05,.24,.07,.04,.01,.07,.01,.09,.02,.07,.02,.15,.04,.23,.06,.09,.02,.19,.04,.28,.06,.04,0,.08,.01,.12,.02,.82,.14,1.62,.18,2.41,.11,.02,0,.04-.01,.05-.01,.09-.01,.18-.01,.26-.02-.79,.71-1.65,1.41-2.57,2.07,1.24,.38,2.46,.41,3.64,.23-.19,.04-.69,.94-.83,1.1-.28,.38-.58,.73-.89,1.09-.63,.75-1.3,1.45-1.99,2.13-.73,.71-1.49,1.39-2.28,2.04-.72,.59-1.69,1.11-2.3,1.81,.07,.06,.15,.08,.24,.13,.72,.44,2.13,.39,2.95,.4,1.11,0,2.22-.12,3.31-.36-2.25,2.7-4.85,5.11-7.73,7.12,.81,.26,1.65,.41,2.5,.45-1.13,.9-2.3,1.75-3.52,2.52h6.7c.18,0,.36,0,.52-.07,.12-.06,.23-.15,.32-.25,3.27-3.25,4.86-7.61,5.15-12.13,.45,4.57,1.68,9.39,4.91,12.82,.6,.65,1.28,1.24,2,1.78,.68,.51,1.5,.84,2.17,1.35-.68,.52-1.92,.82-2.77,.84-.4,.01-.79-.05-1.17-.15-.23-.06-1.11-.27-1.2-.49,.41,1.01,.84,1.99,1.33,2.93,.02,.02,.02,.06,.06,.11-.23-.02-.46-.08-.7-.15,1.23,2.24,2.75,4.33,4.6,6.09,.94,.88,1.93,1.68,2.99,2.42,.53,.37,1.09,.71,1.66,1.04,.21,.12,1.37,.92,1.58,.83-1.82,.87-3.92,1.15-5.91,.82,1.3,1.08,2.74,1.99,4.25,2.73-1.97,.9-4.27,1.09-6.36,.51,2.09,3.38,4.82,6.35,8,8.72,.69-.73,1.33-1.53,1.9-2.36-1.04,.17-2.11,.08-3.12-.21,.76-.56,1.49-1.16,2.19-1.79-1.05,.12-2.14,.02-3.16-.3,2.57-1.77,4.76-4.1,6.36-6.79l-.64,.18c.2-.4,.4-.82,.6-1.22-1.04,.41-2.28,.53-3.37,.2,1.77-1.26,3.6-2.86,4.54-4.4,.91-1.64,1.36-3.38,1.48-5.18,.27,2.69,1,5.53,2.91,7.55,.71,.75,1.58,1.16,2.37,1.78-.4,.32-1.11,.5-1.62,.5-.26,.01-1.24-.09-1.36-.38,.25,.59,1.24,1.62,1.81,2.28-.25-.27-1.07-.43-1.42-.56,.77,1.16,1.42,2.46,2.45,3.41,.9,.83,2,1.39,3.02,2.05,.46,.31,1.05,.57,.31,.89-.38,.15-.83,.17-1.23,.21-.3,.04-1.41,.2-1.64-.02-.01-.01-.04-.01-.05-.02,.78,.64,1.6,1.16,2.52,1.6-1.32,.59-2.58,.62-3.76,.3,.05,.07,8.38,7.26,7.88,7.03-.13,.07-.27,.12-.41,.18-1.1,.44-4.6-.05-5.37-.43,.65,.87,4.83,5.65,6.83,6.6-.66,.31-1.33,.51-1.99,.63,1.5,1.2,3.15,2.2,4.94,3.03-1.64,.72-4.08,.73-6.46,.23,3.22,3.61,6.58,6.86,11.39,8.78-1.09,.41-2.23,.68-3.38,.82,.64,.4,1.3,.81,1.99,1.2,.07,.04-.18,.07-.25,.12-2.01,.51-3.99,.65-5.9,.5-.21,.05-.43,.08-.64,.11,.75,.83,1.54,1.64,2.39,2.42,1.79,1.14,3.72,2.12,5.78,2.94-.51,.21-1.03,.38-1.56,.51,1.9,1.36,3.96,2.65,6.17,3.86,.09,.06-.23,.11-.33,.15-1.29,.32-2.58,.52-3.85,.62-1.01,.25-2,.49-3,.7,.11,.07,.23,.15,.34,.21h17.98c-1.24-.51-1.99-.89-3.72-2Zm-22.78-57.57c-1.24-1-2.36-2.14-3.34-3.45,.75,.37,1.73,.5,2.71,.49,.51,.02,1.03-.01,1.56-.12-.17,1.05-.46,2.09-.94,3.08Z"/></svg>