<?xml version="1.0" encoding="UTF-8"?><svg id="Layer_2" xmlns="http://www.w3.org/2000/svg" viewBox="0 0 32 32"><defs><style>.cls-1{fill:#005945;}</style></defs><path class="cls-1" d="M44.87,66.66c-1.67-.66-3.23-1.46-4.65-2.41,.6-.12,1.19-.26,1.79-.41,.76-.06,1.52-.18,2.29-.37,.07-.03,.25-.06,.2-.09-1.32-.72-2.55-1.49-3.68-2.3,.32-.08,.63-.18,.93-.3-1.24-.49-2.38-1.07-3.44-1.75-.51-.47-.99-.95-1.43-1.43,.13-.02,.26-.04,.38-.07,1.13,.09,2.31,0,3.51-.3,.04-.03,.19-.04,.15-.07-.4-.23-.79-.46-1.18-.71,.68-.09,1.35-.24,2.01-.49-2.87-1.13-5.26-2.77-7.18-4.93,1.41,.3,3.27,0,4.24-.43-1.07-.49-2.05-1.1-2.95-1.8,.34-.06,.68-.16,1.01-.29,.46-.07,.91-.15,1.37-.27,.07-.02,.26-.05,.2-.09-1.33-.73-2.57-1.5-3.71-2.32,.32-.08,.63-.18,.94-.3-.35-.14-.69-.28-1.02-.44,.5-.01,1.02-.12,1.54-.32,.09-.03,.17-.07,.24-.1-1.27-.62-2.39-1.43-3.34-2.45,.52-.04,1.06-.14,1.6-.28,.04-.03,.19-.04,.15-.07-.4-.24-.81-.47-1.19-.72,.69-.08,1.38-.24,2.03-.49-.91-.36-1.78-.78-2.6-1.25,.44,0,1.09-.06,1.44-.33-.31-.25-.74-.41-1.07-.65-.35-.24-.68-.51-.99-.79-.59-.57-1.1-1.21-1.51-1.92,.69-.1,1.32-.27,1.77-.47-.17,.07-.98-.5-1.12-.59,.26-.06,.51-.15,.76-.27-1.87-.94-2.76-2.83-3.08-4.82,.26-.05,.53-.12,.8-.24,.08-.03,.16-.06,.24-.1-1.94-.93-3.52-2.33-4.73-4.23,.71,.18,1.47,.18,2.26-.18-.56-.26-1.04-.57-1.51-.96,0,0,.01,0,.02,0,.6,.09,1.53,.1,2.03-.29-.34-.27-.79-.44-1.15-.7-.37-.26-.72-.55-1.04-.87-.62-.61-1.15-1.32-1.57-2.09,.08,.03,.17,.04,.25,.06-.01-.02-.01-.03-.02-.04-.17-.33-.32-.68-.47-1.04,.54,.28,1.29,.32,1.79-.07-.46-.36-.96-.6-1.37-1.03-.38-.4-.69-.86-.93-1.35-.51-1-.76-2.12-.87-3.23-.07,1.08-.34,2.14-.89,3.12-.57,.93-1.67,1.89-2.73,2.65,.51,.15,1.01,.14,1.48,.04,.01,0,.02-.03,.04-.04,0,0,0,.02,.02,.04,.17-.05,.34-.1,.51-.16-.12,.25-.26,.5-.4,.74,.11-.02,.26-.07,.4-.12-.81,1.41-1.98,2.74-3.62,3.94-1.23-.86-2.33-1.88-3.26-3.12,.54,.27,1.26,.37,1.99,.36,.75,.02,1.53-.09,2.32-.4,.1-.04,.2-.07,.29-.12-2.31-1.11-4.18-2.76-5.61-5.01,.83,.22,1.74,.21,2.68-.21-.66-.32-1.24-.68-1.79-1.14,0,0,.01,0,.03,0,.71,.11,1.82,.11,2.41-.35-.4-.32-.95-.52-1.38-.82-.43-.3-.83-.64-1.21-1-.75-.74-1.39-1.59-1.89-2.51,.1,.03,.19,.05,.29,.07-.01-.02-.01-.04-.02-.04-.21-.39-.38-.8-.56-1.23,.64,.33,1.54,.39,2.14-.08-.53-.42-1.13-.7-1.62-1.2-.46-.48-.83-1.03-1.12-1.62-.61-1.19-.91-2.51-1.04-3.84-.08,1.28-.4,2.53-1.06,3.7-.66,1.09-1.98,2.23-3.23,3.13,.6,.18,1.2,.17,1.75,.04,.01-.01,.03-.03,.04-.05,.01,0,.01,.03,.03,.04,.2-.05,.4-.11,.6-.18-.15,.29-.3,.59-.46,.88,.12-.03,.29-.08,.47-.15-.98,1.71-2.4,3.32-4.4,4.76-.05,.04-.1,.07-.14,.1,.05,.01,.1,.03,.15,.04,.02,0,.04,0,.06,.01,.04,.01,.1,.02,.14,.04,.06,.01,.12,.02,.18,.04,.02,0,.05,0,.07,.01,.51,.09,1.01,.11,1.49,.07,.01,0,.02,0,.03,0,.06,0,.11,0,.16-.01-.49,.44-1.02,.87-1.6,1.29,.77,.24,1.53,.26,2.26,.14-.12,.02-.43,.58-.51,.68-.18,.24-.36,.46-.55,.68-.39,.46-.81,.9-1.24,1.32-.46,.44-.93,.86-1.41,1.26-.45,.37-1.05,.69-1.43,1.12,.04,.04,.1,.05,.15,.08,.45,.27,1.32,.24,1.83,.25,.69,0,1.37-.07,2.05-.22-1.4,1.68-3.01,3.17-4.79,4.42,.5,.16,1.02,.26,1.55,.28-.7,.56-1.43,1.09-2.18,1.57H4.57c.11,0,.22,0,.32-.04,.07-.04,.14-.1,.2-.15,2.03-2.01,3.01-4.72,3.2-7.53,.28,2.84,1.04,5.82,3.04,7.95,.38,.4,.79,.77,1.24,1.1,.42,.32,.93,.52,1.35,.84-.42,.32-1.19,.51-1.72,.52-.25,0-.49-.03-.73-.1-.14-.04-.69-.17-.74-.3,.26,.62,.52,1.24,.82,1.82,.01,.01,.01,.04,.04,.07-.14-.01-.29-.05-.43-.1,.76,1.39,1.71,2.68,2.85,3.78,.58,.54,1.2,1.04,1.85,1.5,.33,.23,.68,.44,1.03,.65,.13,.07,.85,.57,.98,.51-1.13,.54-2.43,.71-3.67,.51,.81,.67,1.7,1.24,2.64,1.69-1.22,.56-2.65,.68-3.95,.32,1.29,2.1,2.99,3.94,4.96,5.41,.43-.46,.82-.95,1.18-1.46-.65,.1-1.31,.05-1.93-.13,.47-.35,.93-.72,1.36-1.11-.65,.07-1.33,.01-1.96-.18,1.6-1.1,2.96-2.54,3.95-4.21l-.4,.11c.12-.25,.25-.51,.38-.76-.65,.26-1.41,.33-2.09,.12,1.1-.78,2.23-1.77,2.82-2.73,.57-1.01,.85-2.1,.92-3.21,.17,1.67,.62,3.43,1.81,4.68,.44,.46,.98,.72,1.47,1.1-.25,.2-.69,.31-1.01,.31-.16,0-.77-.06-.85-.24,.15,.37,.77,1.01,1.12,1.41-.15-.17-.66-.26-.88-.35,.48,.72,.88,1.53,1.52,2.12,.56,.51,1.24,.86,1.87,1.27,.29,.19,.65,.35,.19,.55-.24,.1-.51,.1-.76,.13-.18,.02-.87,.12-1.01-.01,0,0-.02,0-.03-.01,.49,.4,.99,.72,1.57,.99-.82,.37-1.6,.38-2.33,.18,.03,.05,5.2,4.51,4.89,4.36-.08,.04-.17,.07-.26,.11-.68,.27-2.86-.03-3.33-.27,.4,.54,3,3.5,4.24,4.09-.41,.19-.82,.32-1.24,.39,.93,.74,1.96,1.37,3.07,1.88-1.01,.45-2.53,.45-4.01,.14,2,2.24,4.08,4.25,7.07,5.44-.68,.26-1.38,.42-2.1,.51,.4,.25,.81,.5,1.23,.74,.04,.02-.11,.04-.15,.07-1.25,.32-2.48,.4-3.66,.31-.13,.03-.26,.05-.4,.07,.46,.51,.96,1.01,1.48,1.5,1.11,.71,2.31,1.32,3.59,1.82-.32,.13-.64,.24-.97,.32,1.18,.85,2.46,1.65,3.83,2.4,.06,.04-.14,.07-.21,.1-.8,.2-1.6,.32-2.39,.38-.62,.15-1.24,.3-1.86,.43,.07,.04,.14,.1,.21,.13h11.15c-.77-.32-1.23-.55-2.31-1.24,.76-.1,1.51-.29,2.23-.57ZM28.51,31.51c-.77-.62-1.46-1.33-2.07-2.14,.46,.23,1.07,.31,1.68,.3,.32,.01,.64,0,.97-.07-.1,.65-.29,1.29-.58,1.91Z"/></svg>