<?xml version="1.0" encoding="UTF-8"?><svg id="Layer_2" xmlns="http://www.w3.org/2000/svg" xmlns:xlink="http://www.w3.org/1999/xlink" viewBox="0 0 256 256"><defs><style>.cls-1{clip-path:url(#clippath);}.cls-2{fill:none;}.cls-3{fill:#005945;}</style><clipPath id="clippath"><rect class="cls-2" width="256" height="256"/></clipPath></defs><g class="cls-1"><path class="cls-3" d="M265.3,421.26c4.82-.66,9.64-1.83,14.18-3.6-10.62-4.21-20.54-9.31-29.58-15.35,3.79-.8,7.58-1.68,11.37-2.62,4.82-.37,9.69-1.12,14.6-2.34,.42-.19,1.59-.37,1.26-.56-8.42-4.59-16.24-9.5-23.4-14.65,2.01-.51,4.02-1.17,5.94-1.92-7.86-3.09-15.16-6.83-21.9-11.14-3.23-3-6.27-6.04-9.08-9.13,.84-.14,1.64-.28,2.43-.42,7.21,.56,14.7,.05,22.32-1.92,.28-.19,1.22-.28,.94-.47-2.57-1.45-5.05-2.95-7.49-4.49,4.35-.56,8.61-1.54,12.78-3.14-18.25-7.21-33.51-17.64-45.68-31.36,8.99,1.92,20.83,0,27-2.71-6.79-3.14-13.06-6.97-18.77-11.47,2.15-.37,4.31-1.03,6.41-1.87,2.9-.42,5.8-.98,8.75-1.73,.42-.14,1.64-.33,1.26-.56-8.47-4.63-16.38-9.55-23.63-14.79,2.06-.51,4.02-1.17,5.99-1.92-2.2-.89-4.4-1.78-6.5-2.81,3.18-.09,6.5-.75,9.78-2.06,.56-.19,1.08-.42,1.54-.61-8.1-3.93-15.21-9.08-21.25-15.58,3.32-.28,6.74-.89,10.16-1.78,.28-.19,1.22-.28,.94-.47-2.57-1.5-5.15-3-7.58-4.59,4.4-.51,8.75-1.54,12.92-3.14-5.8-2.29-11.33-4.96-16.57-7.96,2.81,0,6.93-.37,9.17-2.11-1.97-1.59-4.68-2.62-6.83-4.12-2.25-1.5-4.35-3.23-6.32-5.05-3.74-3.6-7.02-7.72-9.59-12.21,4.4-.65,8.42-1.73,11.28-2.99-1.08,.47-6.22-3.18-7.16-3.74,1.64-.37,3.28-.94,4.82-1.73-11.93-5.99-17.6-18.02-19.61-30.65,1.68-.33,3.37-.8,5.1-1.5,.51-.19,1.03-.37,1.5-.61-12.35-5.94-22.42-14.84-30.09-26.91,4.49,1.17,9.36,1.12,14.37-1.17-3.56-1.68-6.65-3.65-9.64-6.08,.05,0,.09,0,.14,.05,3.79,.56,9.73,.61,12.92-1.87-2.15-1.73-5.01-2.81-7.35-4.45-2.34-1.64-4.59-3.51-6.65-5.52-3.98-3.88-7.35-8.42-10.01-13.29,.51,.19,1.08,.28,1.59,.37-.09-.14-.09-.19-.14-.23-1.08-2.11-2.06-4.31-3-6.6,3.46,1.78,8.19,2.06,11.42-.47-2.9-2.29-6.13-3.79-8.75-6.55-2.39-2.57-4.4-5.48-5.94-8.61-3.23-6.36-4.82-13.48-5.52-20.54-.47,6.88-2.15,13.62-5.66,19.84-3.6,5.9-10.62,12.03-17.41,16.85,3.28,.98,6.46,.89,9.41,.23,.09-.05,.14-.19,.23-.28,.05,.05,.05,.14,.14,.23,1.08-.33,2.15-.66,3.23-1.03-.8,1.59-1.64,3.18-2.53,4.73,.7-.14,1.64-.42,2.57-.75-5.15,8.99-12.64,17.46-23.07,25.08-7.82-5.48-14.84-11.98-20.73-19.84,3.46,1.73,8.05,2.39,12.68,2.29,4.77,.14,9.73-.56,14.74-2.57,.66-.23,1.26-.47,1.83-.75-14.7-7.07-26.63-17.6-35.71-31.92,5.29,1.4,11.09,1.36,17.04-1.36-4.21-2.01-7.91-4.35-11.42-7.25,.05,0,.09,.05,.19,.05,4.49,.7,11.56,.7,15.35-2.2-2.57-2.06-6.04-3.32-8.8-5.24-2.71-1.92-5.29-4.07-7.67-6.36-4.77-4.68-8.85-10.11-12.03-15.96,.61,.19,1.22,.33,1.83,.42-.09-.14-.09-.23-.14-.28-1.31-2.48-2.43-5.1-3.56-7.82,4.07,2.11,9.78,2.48,13.62-.52-3.37-2.67-7.21-4.45-10.3-7.63-2.9-3.04-5.29-6.55-7.16-10.3-3.88-7.58-5.8-16.01-6.6-24.43-.51,8.14-2.57,16.1-6.74,23.54-4.21,6.93-12.59,14.23-20.59,19.94,3.84,1.17,7.63,1.08,11.14,.28,.09-.09,.19-.19,.23-.33,.09,.05,.09,.19,.19,.23,1.26-.33,2.57-.7,3.84-1.17-.94,1.87-1.92,3.74-2.95,5.62,.8-.19,1.87-.51,3-.94-6.22,10.9-15.3,21.15-28.03,30.33-.33,.23-.61,.47-.89,.66,.33,.09,.61,.19,.94,.28,.14,.05,.28,.05,.37,.09,.28,.09,.61,.14,.89,.23,.37,.09,.75,.14,1.12,.23,.14,0,.33,.05,.47,.09,3.23,.56,6.41,.7,9.5,.42,.09,0,.14-.05,.19-.05,.37-.05,.7-.05,1.03-.09-3.14,2.81-6.51,5.57-10.16,8.19,4.91,1.5,9.73,1.64,14.37,.89-.75,.14-2.71,3.7-3.28,4.35-1.12,1.5-2.29,2.9-3.51,4.31-2.48,2.95-5.15,5.71-7.86,8.42-2.9,2.81-5.9,5.48-8.99,8.05-2.85,2.34-6.69,4.4-9.08,7.16,.28,.23,.61,.33,.94,.52,2.85,1.73,8.42,1.54,11.65,1.59,4.4,0,8.75-.47,13.06-1.4-8.89,10.67-19.14,20.17-30.51,28.13,3.18,1.03,6.51,1.64,9.87,1.78-4.45,3.56-9.08,6.93-13.9,9.97H22.97c.7,0,1.4,0,2.06-.28,.47-.23,.89-.61,1.26-.98,12.92-12.82,19.19-30.05,20.36-47.92,1.78,18.06,6.65,37.06,19.37,50.64,2.39,2.57,5.05,4.91,7.91,7.02,2.67,2.01,5.94,3.32,8.56,5.33-2.67,2.06-7.58,3.23-10.95,3.32-1.59,.05-3.14-.19-4.63-.61-.89-.23-4.4-1.08-4.73-1.92,1.64,3.98,3.32,7.86,5.24,11.56,.09,.09,.09,.23,.23,.42-.89-.09-1.83-.33-2.76-.61,4.87,8.85,10.86,17.08,18.16,24.05,3.7,3.46,7.63,6.65,11.79,9.55,2.11,1.45,4.31,2.81,6.55,4.12,.84,.47,5.43,3.65,6.22,3.28-7.21,3.42-15.49,4.54-23.35,3.23,5.15,4.26,10.81,7.86,16.8,10.76-7.77,3.56-16.85,4.31-25.13,2.01,8.24,13.34,19.05,25.08,31.59,34.44,2.71-2.9,5.24-6.04,7.49-9.31-4.12,.66-8.33,.33-12.31-.84,3-2.2,5.9-4.59,8.66-7.07-4.17,.47-8.47,.09-12.5-1.17,10.16-6.97,18.81-16.19,25.13-26.82l-2.53,.7c.8-1.59,1.59-3.23,2.39-4.82-4.12,1.64-8.99,2.11-13.29,.8,6.97-4.96,14.23-11.28,17.92-17.36,3.6-6.46,5.38-13.34,5.85-20.45,1.08,10.62,3.93,21.86,11.51,29.81,2.81,2.95,6.22,4.59,9.36,7.02-1.59,1.26-4.4,1.97-6.41,1.97-1.03,.05-4.91-.37-5.38-1.5,.98,2.34,4.91,6.41,7.16,8.99-.98-1.08-4.21-1.68-5.62-2.2,3.04,4.59,5.62,9.73,9.69,13.48,3.56,3.28,7.91,5.48,11.93,8.1,1.83,1.22,4.17,2.25,1.22,3.51-1.5,.61-3.28,.66-4.87,.84-1.17,.14-5.57,.8-6.46-.09-.05-.05-.14-.05-.19-.09,3.09,2.53,6.32,4.59,9.97,6.32-5.19,2.34-10.2,2.43-14.84,1.17,.18,.29,33.09,28.69,31.12,27.75-.51,.28-1.08,.47-1.64,.7-4.35,1.73-18.18-.21-21.22-1.71,2.57,3.42,19.07,22.3,26.97,26.05-2.62,1.22-5.24,2.01-7.86,2.48,5.94,4.73,12.45,8.7,19.52,11.98-6.46,2.85-16.12,2.87-25.52,.91,12.73,14.27,25.99,27.08,44.99,34.66-4.31,1.64-8.8,2.67-13.34,3.23,2.53,1.59,5.15,3.18,7.86,4.73,.28,.14-.7,.28-.98,.47-7.96,2.01-15.77,2.57-23.31,1.97-.84,.19-1.68,.33-2.53,.42,2.95,3.28,6.08,6.46,9.45,9.55,7.07,4.49,14.7,8.38,22.84,11.61-2.01,.84-4.07,1.5-6.18,2.01,7.49,5.38,15.63,10.48,24.38,15.26,.37,.23-.89,.42-1.31,.61-5.1,1.26-10.2,2.06-15.21,2.43-3.98,.98-7.91,1.92-11.84,2.76,.42,.28,.89,.61,1.36,.84h70.99c-4.91-2.01-7.86-3.51-14.7-7.91Zm-89.95-227.35c-4.91-3.93-9.31-8.47-13.2-13.62,2.95,1.45,6.83,1.97,10.72,1.92,2.01,.09,4.07-.05,6.18-.47-.66,4.17-1.83,8.24-3.7,12.17Z"/></g></svg>